<?xml version="1.0" encoding="UTF-8" standalone="no"?><!DOCTYPE svg PUBLIC "-//W3C//DTD SVG 1.1//EN" "http://www.w3.org/Graphics/SVG/1.1/DTD/svg11.dtd"><svg width="100%" height="100%" viewBox="0 0 3750 1250" version="1.1" xmlns="http://www.w3.org/2000/svg" xmlns:xlink="http://www.w3.org/1999/xlink" xml:space="preserve" xmlns:serif="http://www.serif.com/" style="fill-rule:evenodd;clip-rule:evenodd;stroke-linejoin:round;stroke-miterlimit:2;"><g><path d="M1984.44,788.213l-40.808,-118.715l66.777,-44.518l111.295,96.456c0,0 -2.473,21.022 -3.71,29.679c-1.064,7.446 -2.043,14.924 -3.71,22.259c-3.092,13.603 -1.237,58.739 -14.839,59.357c-13.603,0.618 -66.777,-55.647 -66.777,-55.647l-72.691,-60.036l24.463,71.165Z" style="fill:none;"/><g><g><path d="M2025.248,929.187l-148.393,-129.844l-148.393,122.424c0,0 -13.281,-21.798 -18.549,-33.388c-6.183,-13.603 -13.603,-32.152 -18.549,-48.228c-4.852,-15.769 -12.366,-37.717 -11.129,-48.228c0.925,-7.864 18.549,-14.839 18.549,-14.839l40.808,-37.098l55.647,-44.518l-33.388,96.456l115.005,-74.197l107.585,74.197l-22.259,-81.616l133.554,126.134c0,0 -2.953,18.152 -7.42,25.969c-4.946,8.656 -14.839,17.313 -22.259,25.969c-7.42,8.656 -15.458,19.167 -22.259,25.969c-5.599,5.599 -18.549,14.839 -18.549,14.839Z" style="fill:#072350;"/></g></g><g><path d="M1743.301,628.69l-115.005,92.746l0,118.715l166.942,-144.683l11.129,-25.969l-63.067,-40.808Z" style="fill:#907557;"/></g><g><path d="M1598.618,113.023l0,267.108l-189.201,-144.683l189.201,-122.424Z" style="fill:#876a50;"/></g><g><path d="M1628.296,109.314l0,129.844l244.849,211.46l248.559,-215.17l0,-126.134l-244.849,211.46l-248.559,-211.46Z" style="fill:#092452;"/></g><g><path d="M2151.382,113.023l0,267.108l192.911,-144.683l-192.911,-122.424Z" style="fill:#b39477;"/></g><g><path d="M1390.867,265.127l0,593.573l100.165,-66.777l0,-333.885l230.01,189.201l22.259,-18.549l-48.228,-40.808l126.134,0l-430.341,-322.755Z" style="fill:#082454;"/></g><g><path d="M1628.445,269.875l-0.148,139.935l196.621,174.362l40.808,-100.165l-237.281,-214.132Z" style="fill:#997a5d;"/></g><g><g><path d="M1884.275,484.007l44.518,96.456l192.911,-170.652l0,-137.264l-237.429,211.46Z" style="fill:#c5a483;"/></g></g><g><g><path d="M1932.502,587.882l426.631,-322.755l0,593.573l-100.165,-70.487l0,-330.175l-230.01,185.492l-18.549,-18.549l44.518,-37.098l-122.424,0Z" style="fill:#072655;"/></g></g><g><path d="M2151.382,584.172l77.906,-66.777l0,285.657l111.295,81.616l-189.201,100.165l0,-400.662Z" style="fill:#7a5f44;"/></g><g><path d="M1520.711,521.105l77.906,63.067l3.71,400.662l-189.201,-96.456l107.585,-85.326l0,-281.947Z" style="fill:#7a5f44;"/></g><g><g><path d="M2121.704,851.28l0,148.393l-244.849,140.974l-248.559,-140.974l0,-252.269c0,0 18.549,-9.275 25.969,-14.839c6.995,-5.246 12.901,-11.874 18.549,-18.549c6.801,-8.038 19.786,-28.442 22.259,-29.679c2.473,-1.237 -5.628,14.646 -7.42,22.259c-2.473,10.511 -6.926,26.991 -7.42,40.808c-0.618,17.313 -1.025,42.548 3.71,63.067c5.565,24.114 19.786,60.594 29.679,81.616c7.594,16.137 17.379,31.603 29.679,44.518c12.366,12.984 29.06,23.496 44.518,33.388c15.378,9.842 32.152,19.167 48.228,25.969c15.49,6.554 31.439,13.822 48.228,14.839c20.404,1.237 51.319,-1.855 74.197,-7.42c22.091,-5.373 45.136,-14.221 63.067,-25.969c17.554,-11.501 30.915,-29.679 44.518,-44.518c13.053,-14.239 27.824,-30.915 37.098,-44.518c7.789,-11.423 18.549,-37.098 18.549,-37.098Z" style="fill:#b59374;"/></g></g><g><g><g><path d="M1943.632,669.498l18.549,40.808l133.554,126.134c0,0 10.787,-26.913 14.839,-40.808c4.328,-14.839 9.275,-35.862 11.129,-48.228c1.284,-8.561 2.473,-19.167 0,-25.969c-2.391,-6.574 -14.839,-14.839 -14.839,-14.839l-96.456,-81.616l-66.777,44.518Z" style="fill:#aa8b6e;"/></g></g></g></g></svg>